<?xml version="1.0" encoding="UTF-8" standalone="no"?>
<svg
   xmlns:dc="http://purl.org/dc/elements/1.1/"
   xmlns:cc="http://creativecommons.org/ns#"
   xmlns:rdf="http://www.w3.org/1999/02/22-rdf-syntax-ns#"
   xmlns:svg="http://www.w3.org/2000/svg"
   xmlns="http://www.w3.org/2000/svg"
   id="svg49"
   xml:space="preserve"
   viewBox="0 0 1024 768"
   y="0px"
   x="0px"
   version="1.1"><metadata
     id="metadata53"><rdf:RDF><cc:Work
         rdf:about=""><dc:format>image/svg+xml</dc:format><dc:type
           rdf:resource="http://purl.org/dc/dcmitype/StillImage" /></cc:Work></rdf:RDF></metadata><style
     id="style2">
#c1 {
	transform: scale(0);
	opacity: 0;
	transform-origin: 50% 50%;
	animation: pulse 4s cubic-bezier(.5,.5,0,1);	
}

#c2 {
	transform: scale(0);
	opacity: 0;
	transform-origin: 50% 50%;
	animation: pulse 4s 0.75s cubic-bezier(.5,.5,0,1);
}

#c3 {
	transform: scale(0);
	opacity: 0;
	transform-origin: 50% 50%;
	animation: pulse 4s 1.5s cubic-bezier(.5,.5,0,1);
}

@keyframes pulse {
	
	12% {
		opacity: 0.3;
	}
	
	50% {
		transform: scale(1);
	}
	
	100% {
		transform: scale(1);
	}
	
}
</style><defs
     id="defs6"><clipPath
       id="clip-path"><rect
         y="0"
         x="0"
         height="100"
         width="1024"
         id="clip" /></clipPath></defs><circle
     fill="none"
     stroke-width="10"
     stroke="#4FB5FA"
     r="370"
     cy="384"
     cx="512"
     id="c1" /><circle
     fill="none"
     stroke-width="10"
     stroke="#8CC3DF"
     r="370"
     cy="384"
     cx="512"
     id="c2" /><circle
     fill="none"
     stroke-width="10"
     stroke="#C8D1C5"
     r="370"
     cy="384"
     cx="512"
     id="c3" /><g
     id="fade"><g
       transform="matrix(1.0682,0,0,1.0682,-34.915,-25.852)"
       id="logo-group"><path
         stroke-miterlimit="2"
         d="m 310.65,425.07 v 4.5706 h 5.4317 q 0.46368,0 0.75072,0.28704 0.30912,0.28704 0.30912,0.75072 0,0.39744 -0.30912,0.68448 -0.28704,0.28704 -0.75072,0.28704 H 310.65 v 5.785 q 0,0.4416 -0.3312,0.75072 -0.30912,0.30912 -0.75072,0.30912 -0.46368,0 -0.7728,-0.30912 -0.30912,-0.30912 -0.30912,-0.75072 v -13.336 q 0,-0.4416 0.30912,-0.75072 0.30912,-0.30912 0.75072,-0.30912 h 7.5293 q 0.46368,0 0.75072,0.28704 0.30912,0.28704 0.30912,0.75072 0,0.39744 -0.30912,0.70656 -0.30912,0.28704 -0.75072,0.28704 z"
         style="font-variant-ligatures:none;fill:#8cc3df;stroke-width:0;stroke-miterlimit:2"
         id="path48480" /><path
         stroke-miterlimit="2"
         d="m 331.88,432.27 q -0.0221,0.39744 -0.3312,0.68448 -0.30912,0.26496 -0.72864,0.26496 h -7.7722 q 0.15456,1.6118 1.2144,2.5834 1.0819,0.97152 2.6275,0.97152 1.0598,0 1.7222,-0.30912 0.6624,-0.30912 1.1702,-0.79488 0.3312,-0.19872 0.64032,-0.19872 0.37536,0 0.61824,0.26496 0.26496,0.26496 0.26496,0.61824 0,0.46368 -0.4416,0.83904 -0.64032,0.64032 -1.7002,1.0819 -1.0598,0.4416 -2.1638,0.4416 -1.7885,0 -3.1574,-0.75072 -1.3469,-0.75072 -2.0976,-2.0976 -0.72864,-1.3469 -0.72864,-3.047 0,-1.8547 0.75072,-3.2458 0.7728,-1.4131 2.0093,-2.1638 1.2586,-0.75072 2.6938,-0.75072 1.4131,0 2.6496,0.72864 1.2365,0.72864 1.9872,2.0093 0.75072,1.2806 0.7728,2.8704 z m -5.4096,-3.6653 q -1.2365,0 -2.1418,0.70656 -0.90528,0.68448 -1.1923,2.1418 h 6.5136 v -0.17664 q -0.1104,-1.1702 -1.0598,-1.921 -0.92736,-0.75072 -2.1197,-0.75072 z"
         style="font-variant-ligatures:none;fill:#8cc3df;stroke-width:0;stroke-miterlimit:2"
         id="path48482" /><path
         stroke-miterlimit="2"
         d="m 345.17,426.77 q 0.46368,0 0.75072,0.30912 0.30912,0.28704 0.30912,0.7728 v 9.5827 q 0,0.4416 -0.30912,0.75072 -0.28704,0.30912 -0.75072,0.30912 -0.46368,0 -0.75072,-0.28704 -0.28704,-0.30912 -0.28704,-0.7728 v -0.57408 q -0.57408,0.7728 -1.5677,1.3248 -0.9936,0.52992 -2.1418,0.52992 -1.5014,0 -2.7379,-0.7728 -1.2144,-0.7728 -1.921,-2.1418 -0.68448,-1.391 -0.68448,-3.1133 0,-1.7222 0.68448,-3.0912 0.70656,-1.391 1.921,-2.1638 1.21444,-0.7728 2.6717,-0.7728 1.1702,0 2.1638,0.48576 1.0157,0.48576 1.6118,1.2365 v -0.52992 q 0,-0.46368 0.28704,-0.7728 0.28704,-0.30912 0.75072,-0.30912 z m -4.5043,10.002 q 1.0378,0 1.8326,-0.52992 0.81696,-0.52992 1.2586,-1.4573 0.46368,-0.92736 0.46368,-2.0976 0,-1.1482 -0.46368,-2.0755 -0.4416,-0.92736 -1.2586,-1.4573 -0.79488,-0.552 -1.8326,-0.552 -1.0378,0 -1.8547,0.52992 -0.79488,0.52992 -1.2586,1.4573 -0.4416,0.92736 -0.4416,2.0976 0,1.17024 0.4416,2.0976 0.46368,0.92736 1.2586,1.4573 0.81696,0.52992 1.8547,0.52992 z"
         style="font-variant-ligatures:none;fill:#8cc3df;stroke-width:0;stroke-miterlimit:2"
         id="path48484" /><path
         stroke-miterlimit="2"
         d="m 353.84,428.98 v 6.5798 q 0,1.104 0.9936,1.104 0.15456,0 0.41952,-0.0662 0.26496,-0.0883 0.41952,-0.0883 0.28704,0 0.48576,0.24288 0.19872,0.24288 0.19872,0.61824 0,0.46368 -0.52992,0.79488 -0.52992,0.3312 -1.1923,0.3312 -0.72864,0 -1.3469,-0.15456 -0.59616,-0.15456 -1.0819,-0.7728 -0.46368,-0.64032 -0.46368,-1.921 v -6.6682 h -1.2806 q -0.41952,0 -0.70656,-0.26496 -0.26496,-0.28704 -0.26496,-0.70656 0,-0.41952 0.26496,-0.68448 0.28704,-0.26496 0.70656,-0.26496 h 1.2806 v -1.8547 q 0,-0.4416 0.28704,-0.75072 0.30912,-0.30912 0.7728,-0.30912 0.4416,0 0.72864,0.30912 0.30912,0.30912 0.30912,0.75072 v 1.8547 h 1.8326 q 0.41952,0 0.68448,0.28704 0.28704,0.26496 0.28704,0.68448 0,0.41952 -0.28704,0.68448 -0.26496,0.26496 -0.68448,0.26496 z"
         style="font-variant-ligatures:none;fill:#8cc3df;stroke-width:0;stroke-miterlimit:2"
         id="path48486" /><path
         stroke-miterlimit="2"
         d="m 369.1,426.93 q 0.46368,0 0.75072,0.30912 0.30912,0.30912 0.30912,0.75072 v 5.8733 q 0,2.2963 -1.2806,3.577 -1.2586,1.2586 -3.577,1.2586 -2.2963,0 -3.5549,-1.2586 -1.2586,-1.2806 -1.2586,-3.577 v -5.8733 q 0,-0.4416 0.28704,-0.75072 0.30912,-0.30912 0.75072,-0.30912 0.46368,0 0.75072,0.30912 0.30912,0.30912 0.30912,0.75072 v 5.8733 q 0,2.8925 2.7158,2.8925 1.3469,0 2.0534,-0.72864 0.70656,-0.72864 0.70656,-2.1638 v -5.8733 q 0,-0.4416 0.28704,-0.75072 0.30912,-0.30912 0.75072,-0.30912 z"
         style="font-variant-ligatures:none;fill:#8cc3df;stroke-width:0;stroke-miterlimit:2"
         id="path48488" /><path
         stroke-miterlimit="2"
         d="m 380.44,426.66 q 0.57408,0 0.9936,0.30912 0.41952,0.28704 0.41952,0.72864 0,0.52992 -0.28704,0.81696 -0.26496,0.26496 -0.6624,0.26496 -0.19872,0 -0.59616,-0.13248 -0.46368,-0.15456 -0.72864,-0.15456 -0.68448,0 -1.3469,0.48576 -0.64032,0.46368 -1.0598,1.3027 -0.39744,0.81696 -0.39744,1.8326 v 5.3213 q 0,0.4416 -0.30912,0.75072 -0.28704,0.30912 -0.75072,0.30912 -0.46368,0 -0.75072,-0.28704 -0.28704,-0.30912 -0.28704,-0.7728 v -9.4502 q 0,-0.4416 0.28704,-0.75072 0.30912,-0.30912 0.75072,-0.30912 0.46368,0 0.75072,0.30912 0.30912,0.30912 0.30912,0.75072 v 1.1261 q 0.48576,-1.0819 1.4573,-1.7443 0.97152,-0.68448 2.208,-0.70656 z"
         style="font-variant-ligatures:none;fill:#8cc3df;stroke-width:0;stroke-miterlimit:2"
         id="path48490" /><path
         stroke-miterlimit="2"
         d="m 394.84,432.27 q -0.0221,0.39744 -0.3312,0.68448 -0.30912,0.26496 -0.72864,0.26496 h -7.7722 q 0.15456,1.6118 1.2144,2.5834 1.0819,0.97152 2.6275,0.97152 1.0598,0 1.7222,-0.30912 0.6624,-0.30912 1.1702,-0.79488 0.3312,-0.19872 0.64032,-0.19872 0.37536,0 0.61824,0.26496 0.26496,0.26496 0.26496,0.61824 0,0.46368 -0.4416,0.83904 -0.64032,0.64032 -1.7002,1.0819 -1.0598,0.4416 -2.1638,0.4416 -1.7885,0 -3.1574,-0.75072 -1.3469,-0.75072 -2.0976,-2.0976 -0.72864,-1.3469 -0.72864,-3.047 0,-1.8547 0.75072,-3.2458 0.7728,-1.4131 2.0093,-2.1638 1.2586,-0.75072 2.6938,-0.75072 1.4131,0 2.6496,0.72864 1.2365,0.72864 1.9872,2.0093 0.75072,1.2806 0.7728,2.8704 z m -5.4096,-3.6653 q -1.2365,0 -2.1418,0.70656 -0.90528,0.68448 -1.1923,2.1418 h 6.5136 v -0.17664 q -0.1104,-1.1702 -1.0598,-1.921 -0.92736,-0.75072 -2.1197,-0.75072 z"
         style="font-variant-ligatures:none;fill:#8cc3df;stroke-width:0;stroke-miterlimit:2"
         id="path48492" /><path
         stroke-miterlimit="2"
         d="m 407.21,425.07 v 4.5706 h 5.4317 q 0.46368,0 0.75072,0.28704 0.30912,0.28704 0.30912,0.75072 0,0.39744 -0.30912,0.68448 -0.28704,0.28704 -0.75072,0.28704 H 407.21 v 5.785 q 0,0.4416 -0.3312,0.75072 -0.30912,0.30912 -0.75072,0.30912 -0.46368,0 -0.7728,-0.30912 -0.30912,-0.30912 -0.30912,-0.75072 v -13.336 q 0,-0.4416 0.30912,-0.75072 0.30912,-0.30912 0.75072,-0.30912 h 7.5293 q 0.46368,0 0.75072,0.28704 0.30912,0.28704 0.30912,0.75072 0,0.39744 -0.30912,0.70656 -0.30912,0.28704 -0.75072,0.28704 z"
         style="font-variant-ligatures:none;fill:#8cc3df;stroke-width:0;stroke-miterlimit:2"
         id="path48494" /><path
         stroke-miterlimit="2"
         d="m 420.9,437.44 q 0,0.4416 -0.30912,0.75072 -0.30912,0.30912 -0.75072,0.30912 -0.4416,0 -0.75072,-0.30912 -0.28704,-0.30912 -0.28704,-0.75072 v -14.22 q 0,-0.4416 0.30912,-0.75072 0.30912,-0.30912 0.75072,-0.30912 0.4416,0 0.72864,0.30912 Q 420.9,422.7784 420.9,423.22 Z"
         style="font-variant-ligatures:none;fill:#8cc3df;stroke-width:0;stroke-miterlimit:2"
         id="path48496" /><path
         stroke-miterlimit="2"
         d="m 434.99,426.77 q 0.46368,0 0.75072,0.30912 0.30912,0.28704 0.30912,0.7728 v 9.5827 q 0,0.4416 -0.30912,0.75072 -0.28704,0.30912 -0.75072,0.30912 -0.46368,0 -0.75072,-0.28704 -0.28704,-0.30912 -0.28704,-0.7728 v -0.57408 q -0.57408,0.7728 -1.5677,1.3248 -0.9936,0.52992 -2.1418,0.52992 -1.5014,0 -2.7379,-0.7728 -1.2144,-0.7728 -1.921,-2.1418 -0.68448,-1.391 -0.68448,-3.1133 0,-1.7222 0.68448,-3.0912 0.70656,-1.391 1.921,-2.1638 1.21444,-0.7728 2.6717,-0.7728 1.1702,0 2.1638,0.48576 1.0157,0.48576 1.6118,1.2365 v -0.52992 q 0,-0.46368 0.28704,-0.7728 0.28704,-0.30912 0.75072,-0.30912 z m -4.5043,10.002 q 1.0378,0 1.8326,-0.52992 0.81696,-0.52992 1.2586,-1.4573 0.46368,-0.92736 0.46368,-2.0976 0,-1.1482 -0.46368,-2.0755 -0.4416,-0.92736 -1.2586,-1.4573 -0.79488,-0.552 -1.8326,-0.552 -1.0378,0 -1.8547,0.52992 -0.79488,0.52992 -1.2586,1.4573 -0.4416,0.92736 -0.4416,2.0976 0,1.17024 0.4416,2.0976 0.46368,0.92736 1.2586,1.4573 0.81696,0.52992 1.8547,0.52992 z"
         style="font-variant-ligatures:none;fill:#8cc3df;stroke-width:0;stroke-miterlimit:2"
         id="path48498" /><path
         stroke-miterlimit="2"
         d="m 450.2,426.77 q 0.46368,0 0.75072,0.30912 0.30912,0.28704 0.30912,0.7728 v 9.7152 q 0,1.7885 -0.7728,2.9808 -0.75072,1.2144 -2.0534,1.7885 -1.3027,0.57408 -2.9366,0.57408 -0.8832,0 -2.0755,-0.30912 -1.1702,-0.30912 -1.5014,-0.64032 -0.68448,-0.35328 -0.68448,-0.8832 0,-0.13248 0.0883,-0.35328 0.24288,-0.552 0.81696,-0.552 0.28704,0 0.61824,0.13248 1.7664,0.68448 2.76,0.68448 1.7664,0 2.6938,-0.86112 0.94944,-0.83904 0.94944,-2.3184 v -1.1923 q -0.46368,0.86112 -1.5677,1.4794 -1.0819,0.61824 -2.2963,0.61824 -1.5235,0 -2.7821,-0.7728 -1.2586,-0.7728 -1.9872,-2.1418 -0.70656,-1.391 -0.70656,-3.1133 0,-1.7222 0.70656,-3.0912 0.72864,-1.391 1.9651,-2.1638 1.2586,-0.7728 2.76,-0.7728 1.2144,0 2.2522,0.552 1.0598,0.552 1.656,1.3469 V 427.852 q 0,-0.46368 0.28704,-0.7728 0.28704,-0.30912 0.75072,-0.30912 z m -4.6589,10.002 q 1.0819,0 1.921,-0.50784 0.83904,-0.52992 1.3027,-1.4573 0.48576,-0.94944 0.48576,-2.1197 0,-1.1702 -0.48576,-2.0976 -0.46368,-0.92736 -1.3027,-1.4573 -0.83904,-0.52992 -1.921,-0.52992 -1.0598,0 -1.8989,0.52992 -0.83904,0.52992 -1.3248,1.4794 -0.46368,0.92736 -0.46368,2.0755 0,1.1482 0.46368,2.0976 0.48576,0.92736 1.3248,1.4573 0.83904,0.52992 1.8989,0.52992 z"
         style="font-variant-ligatures:none;fill:#8cc3df;stroke-width:0;stroke-miterlimit:2"
         id="path48500" /><path
         stroke-miterlimit="2"
         d="m 471.26,426.77 q 0.46368,0 0.75072,0.30912 0.30912,0.28704 0.30912,0.7728 v 9.5827 q 0,0.4416 -0.30912,0.75072 -0.28704,0.30912 -0.75072,0.30912 -0.46368,0 -0.75072,-0.28704 -0.28704,-0.30912 -0.28704,-0.7728 v -0.57408 q -0.57408,0.7728 -1.5677,1.3248 -0.9936,0.52992 -2.1418,0.52992 -1.5014,0 -2.7379,-0.7728 -1.2144,-0.7728 -1.921,-2.1418 -0.68448,-1.391 -0.68448,-3.1133 0,-1.7222 0.68448,-3.0912 0.70656,-1.391 1.921,-2.1638 1.21444,-0.7728 2.6717,-0.7728 1.1702,0 2.1638,0.48576 1.0157,0.48576 1.6118,1.2365 v -0.52992 q 0,-0.46368 0.28704,-0.7728 0.28704,-0.30912 0.75072,-0.30912 z m -4.5043,10.002 q 1.0378,0 1.8326,-0.52992 0.81696,-0.52992 1.2586,-1.4573 0.46368,-0.92736 0.46368,-2.0976 0,-1.1482 -0.46368,-2.0755 -0.4416,-0.92736 -1.2586,-1.4573 -0.79488,-0.552 -1.8326,-0.552 -1.0378,0 -1.8547,0.52992 -0.79488,0.52992 -1.2586,1.4573 -0.4416,0.92736 -0.4416,2.0976 0,1.17024 0.4416,2.0976 0.46368,0.92736 1.2586,1.4573 0.81696,0.52992 1.8547,0.52992 z"
         style="font-variant-ligatures:none;fill:#8cc3df;stroke-width:0;stroke-miterlimit:2"
         id="path48502" /><path
         stroke-miterlimit="2"
         d="m 482.7,426.66 q 3.9744,0 3.9744,4.7693 v 6.0058 q 0,0.4416 -0.30912,0.75072 -0.28704,0.30912 -0.75072,0.30912 -0.4416,0 -0.75072,-0.30912 -0.28704,-0.30912 -0.28704,-0.75072 v -5.9837 q 0,-1.3027 -0.59616,-2.0755 -0.59616,-0.7728 -1.943,-0.7728 -0.8832,0 -1.6118,0.39744 -0.70656,0.37536 -1.1261,1.0378 -0.39744,0.64032 -0.39744,1.4131 v 5.9837 q 0,0.4416 -0.30912,0.75072 -0.28704,0.30912 -0.75072,0.30912 -0.46368,0 -0.75072,-0.28704 -0.28704,-0.30912 -0.28704,-0.7728 v -9.4502 q 0,-0.4416 0.28704,-0.75072 0.30912,-0.30912 0.75072,-0.30912 0.46368,0 0.75072,0.30912 0.30912,0.30912 0.30912,0.75072 v 0.7728 q 0.57408,-0.8832 1.5898,-1.4794 1.0378,-0.61824 2.208,-0.61824 z"
         style="font-variant-ligatures:none;fill:#8cc3df;stroke-width:0;stroke-miterlimit:2"
         id="path48504" /><path
         stroke-miterlimit="2"
         d="m 500.59,422.16 q 0.46368,0 0.75072,0.30912 0.30912,0.28704 0.30912,0.75072 v 14.22 q 0,0.4416 -0.30912,0.75072 -0.28704,0.30912 -0.75072,0.30912 -0.46368,0 -0.75072,-0.28704 -0.28704,-0.30912 -0.28704,-0.7728 v -0.61824 q -0.552,0.79488 -1.5677,1.3469 -0.9936,0.552 -2.1418,0.552 -1.5014,0 -2.7158,-0.7728 -1.2144,-0.7728 -1.921,-2.1418 -0.70656,-1.391 -0.70656,-3.1133 0,-1.7222 0.68448,-3.0912 0.70656,-1.391 1.921,-2.1638 1.21444,-0.7728 2.6717,-0.7728 1.1702,0 2.1638,0.48576 0.9936,0.48576 1.6118,1.2586 v -5.1888 q 0,-0.46368 0.28704,-0.75072 0.28704,-0.30912 0.75072,-0.30912 z m -4.5043,14.617 q 1.0378,0 1.8326,-0.52992 0.81696,-0.52992 1.2586,-1.4573 0.46368,-0.92736 0.46368,-2.0976 0,-1.1482 -0.46368,-2.0755 -0.4416,-0.94944 -1.2586,-1.4794 -0.79488,-0.52992 -1.8326,-0.52992 -1.0378,0 -1.8547,0.52992 -0.79488,0.52992 -1.2586,1.4794 -0.4416,0.92736 -0.4416,2.0755 0,1.1702 0.4416,2.0976 0.46368,0.92736 1.2586,1.4573 0.81696,0.52992 1.8547,0.52992 z"
         style="font-variant-ligatures:none;fill:#8cc3df;stroke-width:0;stroke-miterlimit:2"
         id="path48506" /><path
         stroke-miterlimit="2"
         d="m 524.39,437.13 q 0.0662,0.19872 0.0662,0.41952 0,0.4416 -0.30912,0.72864 -0.28704,0.28704 -0.68448,0.28704 -0.30912,0 -0.57408,-0.17664 -0.24288,-0.19872 -0.39744,-0.52992 l -1.369,-3.2458 h -6.8227 l -1.3469,3.2678 q -0.1104,0.3312 -0.37536,0.50784 -0.24288,0.17664 -0.552,0.17664 -0.46368,0 -0.70656,-0.24288 -0.24288,-0.24288 -0.24288,-0.6624 0,-0.0883 0.0442,-0.35328 l 5.6304,-13.645 q 0.15456,-0.35328 0.41952,-0.52992 0.28704,-0.19872 0.64032,-0.15456 0.3312,0 0.59616,0.17664 0.26496,0.17664 0.37536,0.50784 z m -9.2515,-4.5264 h 5.1446 l -2.5834,-6.1824 z"
         style="font-variant-ligatures:none;fill:#8cc3df;stroke-width:0;stroke-miterlimit:2"
         id="path48508" /><path
         stroke-miterlimit="2"
         d="m 527.66,441.41 q -0.35328,0 -0.6624,-0.26496 -0.28704,-0.26496 -0.28704,-0.64032 0,-0.17664 0.1104,-0.4416 l 9.2515,-18.636 q 0.30912,-0.59616 0.86112,-0.59616 0.3312,0 0.61824,0.26496 0.28704,0.24288 0.28704,0.61824 0,0.26496 -0.1104,0.48576 l -9.2294,18.636 Q 528.2341,441.41 527.66002,441.41 Z"
         style="font-variant-ligatures:none;fill:#8cc3df;stroke-width:0;stroke-miterlimit:2"
         id="path48510" /><path
         stroke-miterlimit="2"
         d="m 550.43,430.06 q 1.2144,0.41952 1.9872,1.391 0.79488,0.94944 0.79488,2.495 0,2.4509 -1.4352,3.5107 -1.4131,1.0378 -3.4666,1.0378 h -5.6746 q -0.4416,0 -0.75072,-0.30912 -0.30912,-0.30912 -0.30912,-0.75072 v -13.336 q 0,-0.4416 0.30912,-0.75072 0.30912,-0.30912 0.75072,-0.30912 h 5.6746 q 2.0093,0 3.047,0.9936 1.0598,0.9936 1.0598,2.8704 0,1.0598 -0.50784,1.8989 -0.50784,0.81696 -1.4794,1.2586 z m -0.28704,-2.8262 q 0,-1.0378 -0.57408,-1.5677 -0.552,-0.552 -1.5677,-0.552 h -4.1731 v 4.3056 h 4.2173 q 0.90528,-0.0221 1.5014,-0.57408 0.59616,-0.57408 0.59616,-1.6118 z m -1.8547,9.2294 q 1.2144,0 1.943,-0.61824 0.72864,-0.64032 0.72864,-1.8989 0,-2.4509 -2.7821,-2.4509 h -4.3498 v 4.968 z"
         style="font-variant-ligatures:none;fill:#8cc3df;stroke-width:0;stroke-miterlimit:2"
         id="path48512" /><path
         stroke-miterlimit="2"
         d="m 573.51,423.04 q 0.46368,0 0.75072,0.28704 0.30912,0.26496 0.30912,0.72864 0,0.46368 -0.30912,0.72864 -0.28704,0.26496 -0.75072,0.26496 h -3.9302 v 12.387 q 0,0.4416 -0.3312,0.75072 -0.30912,0.30912 -0.79488,0.30912 -0.48576,0 -0.81696,-0.30912 -0.30912,-0.30912 -0.30912,-0.75072 v -12.387 h -3.9082 q -0.46368,0 -0.7728,-0.26496 -0.28704,-0.28704 -0.28704,-0.75072 0,-0.4416 0.28704,-0.70656 0.30912,-0.28704 0.7728,-0.28704 z"
         style="font-variant-ligatures:none;fill:#8cc3df;stroke-width:0;stroke-miterlimit:2"
         id="path48514" /><path
         stroke-miterlimit="2"
         d="m 585.76,432.27 q -0.0221,0.39744 -0.3312,0.68448 -0.30912,0.26496 -0.72864,0.26496 h -7.7722 q 0.15456,1.6118 1.2144,2.5834 1.0819,0.97152 2.6275,0.97152 1.0598,0 1.7222,-0.30912 0.6624,-0.30912 1.1702,-0.79488 0.3312,-0.19872 0.64032,-0.19872 0.37536,0 0.61824,0.26496 0.26496,0.26496 0.26496,0.61824 0,0.46368 -0.4416,0.83904 -0.64032,0.64032 -1.7002,1.0819 -1.0598,0.4416 -2.1638,0.4416 -1.7885,0 -3.1574,-0.75072 -1.3469,-0.75072 -2.0976,-2.0976 -0.72864,-1.3469 -0.72864,-3.047 0,-1.8547 0.75072,-3.2458 0.7728,-1.4131 2.0093,-2.1638 1.2586,-0.75072 2.6938,-0.75072 1.4131,0 2.6496,0.72864 1.2365,0.72864 1.9872,2.0093 0.75072,1.2806 0.7728,2.8704 z m -5.4096,-3.6653 q -1.2365,0 -2.1418,0.70656 -0.90528,0.68448 -1.1923,2.1418 h 6.5136 v -0.17664 q -0.1104,-1.1702 -1.0598,-1.921 -0.92736,-0.75072 -2.1197,-0.75072 z"
         style="font-variant-ligatures:none;fill:#8cc3df;stroke-width:0;stroke-miterlimit:2"
         id="path48516" /><path
         stroke-miterlimit="2"
         d="m 588.91,436.69 q -0.19872,-0.30912 -0.19872,-0.59616 0,-0.4416 0.46368,-0.75072 0.2208,-0.15456 0.50784,-0.15456 0.39744,0 0.72864,0.3312 0.6624,0.75072 1.4131,1.1261 0.7728,0.37536 1.8326,0.37536 0.83904,-0.0221 1.4794,-0.37536 0.64032,-0.37536 0.64032,-1.1923 0,-0.75072 -0.6624,-1.1482 -0.64032,-0.39744 -1.8989,-0.72864 -1.2365,-0.3312 -2.0534,-0.68448 -0.81696,-0.37536 -1.391,-1.0598 -0.552,-0.70656 -0.552,-1.8326 0,-0.9936 0.552,-1.7443 0.57408,-0.75072 1.5014,-1.1702 0.94944,-0.41952 2.0534,-0.41952 1.0598,0 2.0976,0.39744 1.0598,0.39744 1.7222,1.2144 0.26496,0.30912 0.26496,0.64032 0,0.35328 -0.35328,0.68448 -0.2208,0.19872 -0.552,0.19872 -0.39744,0 -0.64032,-0.26496 -0.46368,-0.52992 -1.1482,-0.81696 -0.6624,-0.28704 -1.4794,-0.28704 -0.83904,0 -1.4352,0.35328 -0.57408,0.3312 -0.57408,1.1482 0.0221,0.7728 0.6624,1.1482 0.6624,0.37536 2.0093,0.72864 1.1702,0.30912 1.943,0.6624 0.7728,0.35328 1.3027,1.0598 0.52992,0.68448 0.52992,1.8106 0,1.0378 -0.59616,1.8106 -0.59616,0.75072 -1.5677,1.1702 -0.94944,0.39744 -2.0314,0.39744 -1.391,0 -2.5834,-0.48576 -1.1702,-0.48576 -1.9872,-1.5456 z"
         style="font-variant-ligatures:none;fill:#8cc3df;stroke-width:0;stroke-miterlimit:2"
         id="path48518" /><path
         stroke-miterlimit="2"
         d="m 604.61,428.98 v 6.5798 q 0,1.104 0.9936,1.104 0.15456,0 0.41952,-0.0662 0.26496,-0.0883 0.41952,-0.0883 0.28704,0 0.48576,0.24288 0.19872,0.24288 0.19872,0.61824 0,0.46368 -0.52992,0.79488 -0.52992,0.3312 -1.1923,0.3312 -0.72864,0 -1.3469,-0.15456 -0.59616,-0.15456 -1.0819,-0.7728 -0.46368,-0.64032 -0.46368,-1.921 v -6.6682 h -1.2806 q -0.41952,0 -0.70656,-0.26496 -0.26496,-0.28704 -0.26496,-0.70656 0,-0.41952 0.26496,-0.68448 0.28704,-0.26496 0.70656,-0.26496 h 1.2806 v -1.8547 q 0,-0.4416 0.28704,-0.75072 0.30912,-0.30912 0.7728,-0.30912 0.4416,0 0.72864,0.30912 0.30912,0.30912 0.30912,0.75072 v 1.8547 h 1.8326 q 0.41952,0 0.68448,0.28704 0.28704,0.26496 0.28704,0.68448 0,0.41952 -0.28704,0.68448 -0.26496,0.26496 -0.68448,0.26496 z"
         style="font-variant-ligatures:none;fill:#8cc3df;stroke-width:0;stroke-miterlimit:2"
         id="path48520" /><path
         stroke-miterlimit="2"
         d="m 623.84,423.04 q 1.1702,0 2.1638,0.64032 0.9936,0.61824 1.5677,1.7002 0.59616,1.0819 0.59616,2.3846 0,1.3027 -0.59616,2.4067 -0.57408,1.104 -1.5677,1.7443 -0.9936,0.64032 -2.1638,0.64032 h -4.151 v 4.8797 q 0,0.4416 -0.28704,0.75072 -0.28704,0.30912 -0.72864,0.30912 -0.46368,0 -0.75072,-0.28704 -0.26496,-0.30912 -0.26496,-0.7728 v -13.336 q 0,-0.4416 0.30912,-0.75072 0.30912,-0.30912 0.75072,-0.30912 z m 0,7.5072 q 0.59616,0 1.104,-0.37536 0.50784,-0.39744 0.79488,-1.0378 0.30912,-0.64032 0.30912,-1.369 0,-1.1261 -0.6624,-1.8989 -0.64032,-0.79488 -1.5456,-0.79488 h -4.151 v 5.4758 z"
         style="font-variant-ligatures:none;fill:#8cc3df;stroke-width:0;stroke-miterlimit:2"
         id="path48522" /><path
         stroke-miterlimit="2"
         d="m 634.28,437.44 q 0,0.4416 -0.30912,0.75072 -0.30912,0.30912 -0.75072,0.30912 -0.4416,0 -0.75072,-0.30912 -0.28704,-0.30912 -0.28704,-0.75072 v -14.22 q 0,-0.4416 0.30912,-0.75072 0.30912,-0.30912 0.75072,-0.30912 0.4416,0 0.72864,0.30912 0.30912,0.30912 0.30912,0.75072 z"
         style="font-variant-ligatures:none;fill:#8cc3df;stroke-width:0;stroke-miterlimit:2"
         id="path48524" /><path
         stroke-miterlimit="2"
         d="m 648.38,426.77 q 0.46368,0 0.75072,0.30912 0.30912,0.28704 0.30912,0.7728 v 9.5827 q 0,0.4416 -0.30912,0.75072 -0.28704,0.30912 -0.75072,0.30912 -0.46368,0 -0.75072,-0.28704 -0.28704,-0.30912 -0.28704,-0.7728 v -0.57408 q -0.57408,0.7728 -1.5677,1.3248 -0.9936,0.52992 -2.1418,0.52992 -1.5014,0 -2.7379,-0.7728 -1.2144,-0.7728 -1.921,-2.1418 -0.68448,-1.391 -0.68448,-3.1133 0,-1.7222 0.68448,-3.0912 0.70656,-1.391 1.921,-2.1638 1.21444,-0.7728 2.6717,-0.7728 1.1702,0 2.1638,0.48576 1.0157,0.48576 1.6118,1.2365 v -0.52992 q 0,-0.46368 0.28704,-0.7728 0.28704,-0.30912 0.75072,-0.30912 z m -4.5043,10.002 q 1.0378,0 1.8326,-0.52992 0.81696,-0.52992 1.2586,-1.4573 0.46368,-0.92736 0.46368,-2.0976 0,-1.1482 -0.46368,-2.0755 -0.4416,-0.92736 -1.2586,-1.4573 -0.79488,-0.552 -1.8326,-0.552 -1.0378,0 -1.8547,0.52992 -0.79488,0.52992 -1.2586,1.4573 -0.4416,0.92736 -0.4416,2.0976 0,1.17024 0.4416,2.0976 0.46368,0.92736 1.2586,1.4573 0.81696,0.52992 1.8547,0.52992 z"
         style="font-variant-ligatures:none;fill:#8cc3df;stroke-width:0;stroke-miterlimit:2"
         id="path48526" /><path
         stroke-miterlimit="2"
         d="m 657.05,428.98 v 6.5798 q 0,1.104 0.9936,1.104 0.15456,0 0.41952,-0.0662 0.26496,-0.0883 0.41952,-0.0883 0.28704,0 0.48576,0.24288 0.19872,0.24288 0.19872,0.61824 0,0.46368 -0.52992,0.79488 -0.52992,0.3312 -1.1923,0.3312 -0.72864,0 -1.3469,-0.15456 -0.59616,-0.15456 -1.0819,-0.7728 -0.46368,-0.64032 -0.46368,-1.921 v -6.6682 h -1.2806 q -0.41952,0 -0.70656,-0.26496 -0.26496,-0.28704 -0.26496,-0.70656 0,-0.41952 0.26496,-0.68448 0.28704,-0.26496 0.70656,-0.26496 h 1.2806 v -1.8547 q 0,-0.4416 0.28704,-0.75072 0.30912,-0.30912 0.7728,-0.30912 0.4416,0 0.72864,0.30912 0.30912,0.30912 0.30912,0.75072 v 1.8547 h 1.8326 q 0.41952,0 0.68448,0.28704 0.28704,0.26496 0.28704,0.68448 0,0.41952 -0.28704,0.68448 -0.26496,0.26496 -0.68448,0.26496 z"
         style="font-variant-ligatures:none;fill:#8cc3df;stroke-width:0;stroke-miterlimit:2"
         id="path48528" /><path
         stroke-miterlimit="2"
         d="m 668.09,424.06 q -0.72864,0 -1.0819,0.4416 -0.3312,0.4416 -0.3312,1.0819 v 1.5456 h 2.1859 q 0.4416,0 0.70656,0.28704 0.28704,0.26496 0.28704,0.68448 0,0.41952 -0.28704,0.68448 -0.26496,0.26496 -0.70656,0.26496 h -2.1859 v 8.3904 q 0,0.4416 -0.30912,0.75072 -0.28704,0.30912 -0.75072,0.30912 -0.4416,0 -0.75072,-0.30912 -0.28704,-0.30912 -0.28704,-0.75072 v -8.3904 h -1.369 q -0.41952,0 -0.70656,-0.26496 -0.28704,-0.26496 -0.28704,-0.68448 0,-0.41952 0.28704,-0.68448 0.28704,-0.28704 0.70656,-0.28704 h 1.369 v -1.5456 q 0,-1.5456 0.9936,-2.4509 0.9936,-0.92736 2.8042,-0.92736 0.75072,0 1.3248,0.28704 0.57408,0.26496 0.57408,0.81696 0,0.41952 -0.26496,0.70656 -0.24288,0.26496 -0.59616,0.26496 -0.0883,0 -0.48576,-0.0883 -0.48576,-0.13248 -0.83904,-0.13248 z"
         style="font-variant-ligatures:none;fill:#8cc3df;stroke-width:0;stroke-miterlimit:2"
         id="path48530" /><path
         stroke-miterlimit="2"
         d="m 684.1,432.71 q 0,1.7222 -0.7728,3.0912 -0.7728,1.369 -2.1197,2.1418 -1.3248,0.7728 -2.9366,0.7728 -1.6118,0 -2.9587,-0.7728 -1.3248,-0.7728 -2.0976,-2.1418 -0.7728,-1.369 -0.7728,-3.0912 0,-1.7222 0.7728,-3.1133 0.7728,-1.391 2.0976,-2.1638 1.3469,-0.7728 2.9587,-0.7728 1.6118,0 2.9366,0.7728 1.3469,0.7728 2.1197,2.1638 0.7728,1.391 0.7728,3.1133 z m -2.0976,0 q 0,-1.1923 -0.50784,-2.1197 -0.48576,-0.94944 -1.3469,-1.4573 -0.83904,-0.52992 -1.8768,-0.52992 -1.03776,0 -1.8989,0.52992 -0.83904,0.50784 -1.3469,1.4573 -0.48576,0.92736 -0.48576,2.1197 0,1.1702 0.48576,2.0976 0.50784,0.92736 1.3469,1.4573 0.86112,0.50784 1.8989,0.50784 1.03778,0 1.8768,-0.50784 0.86112,-0.52992 1.3469,-1.4573 0.50784,-0.92736 0.50784,-2.0976 z"
         style="font-variant-ligatures:none;fill:#8cc3df;stroke-width:0;stroke-miterlimit:2"
         id="path48532" /><path
         stroke-miterlimit="2"
         d="m 693.66,426.66 q 0.57408,0 0.9936,0.30912 0.41952,0.28704 0.41952,0.72864 0,0.52992 -0.28704,0.81696 -0.26496,0.26496 -0.6624,0.26496 -0.19872,0 -0.59616,-0.13248 -0.46368,-0.15456 -0.72864,-0.15456 -0.68448,0 -1.3469,0.48576 -0.64032,0.46368 -1.0598,1.3027 -0.39744,0.81696 -0.39744,1.8326 v 5.3213 q 0,0.4416 -0.30912,0.75072 -0.28704,0.30912 -0.75072,0.30912 -0.46368,0 -0.75072,-0.28704 -0.28704,-0.30912 -0.28704,-0.7728 v -9.4502 q 0,-0.4416 0.28704,-0.75072 0.30912,-0.30912 0.75072,-0.30912 0.46368,0 0.75072,0.30912 0.30912,0.30912 0.30912,0.75072 v 1.1261 q 0.48576,-1.0819 1.4573,-1.7443 0.97152,-0.68448 2.208,-0.70656 z"
         style="font-variant-ligatures:none;fill:#8cc3df;stroke-width:0;stroke-miterlimit:2"
         id="path48534" /><path
         stroke-miterlimit="2"
         d="m 711.65,426.73 q 3.864,0 3.864,4.8134 v 5.8954 q 0,0.46368 -0.28704,0.7728 -0.28704,0.28704 -0.75072,0.28704 -0.46368,0 -0.7728,-0.30912 -0.28704,-0.30912 -0.28704,-0.75072 v -5.8733 q 0,-2.8925 -2.4288,-2.8925 -0.86112,0 -1.5677,0.39744 -0.68448,0.37536 -1.0819,1.0378 -0.37536,0.6624 -0.37536,1.4573 v 5.8733 q 0,0.4416 -0.30912,0.75072 -0.28704,0.30912 -0.75072,0.30912 -0.46368,0 -0.75072,-0.28704 -0.28704,-0.30912 -0.28704,-0.7728 v -5.8954 q 0,-1.3027 -0.552,-2.0755 -0.552,-0.79488 -1.8326,-0.79488 -1.3027,0 -2.1638,0.83904 -0.83904,0.81696 -0.83904,2.0314 v 5.8954 q 0,0.4416 -0.30912,0.75072 -0.28704,0.30912 -0.75072,0.30912 -0.46368,0 -0.75072,-0.28704 -0.28704,-0.30912 -0.28704,-0.7728 v -9.4502 q 0,-0.4416 0.28704,-0.75072 0.30912,-0.30912 0.75072,-0.30912 0.46368,0 0.75072,0.30912 0.30912,0.30912 0.30912,0.75072 v 0.7728 q 0.57408,-0.86112 1.5235,-1.4352 0.97152,-0.59616 2.0976,-0.59616 2.7379,0 3.5549,2.4288 0.48576,-0.92736 1.6118,-1.6781 1.1261,-0.75072 2.3846,-0.75072 z"
         style="font-variant-ligatures:none;fill:#8cc3df;stroke-width:0;stroke-miterlimit:2"
         id="path48536" /><path
         stroke-miterlimit="2"
         d="m 300.01,326.08 v 63.63 h -5.67 v -63.63 h -21.375 v 12.69 h 11.925 v -3.78 h -8.145 v -5.13 h 13.815 v 63.63 h 13.23 v -63.63 h 13.77 v 5.13 h -8.1 v 3.78 h 11.88 v -12.69 z"
         style="font-variant-ligatures:none;fill:#4fb5fa;stroke:#4fb5fa;stroke-width:1.25;stroke-miterlimit:2"
         id="path48539" /><path
         stroke-miterlimit="2"
         d="m 354.39,380.8 v -25.245 h 23.04 v 5.13 h -17.37 v 3.78 h 21.15 v -12.69 h -30.6 v 32.805 h 28.485 v 5.13 H 344.94 v -59.85 h 33.525 v 5.13 H 350.61 v 11.655 h 3.78 v -7.875 h 27.855 V 326.08 H 341.16 v 67.41 h 41.715 V 380.8 Z"
         style="font-variant-ligatures:none;fill:#63baf1;stroke:#63baf1;stroke-width:1.25;stroke-miterlimit:2"
         id="path48541" /><path
         stroke-miterlimit="2"
         d="m 429.82,349.61 -1.26,3.555 c 10.8,4.455 15.615,11.205 15.615,21.375 0,12.06 -10.26,16.11 -20.79,16.11 -6.66,0 -12.42,-1.305 -18.765,-4.32 l 1.935,-5.13 c 6.165,2.88 11.835,4.32 16.83,4.32 13.185,0 15.12,-6.885 15.12,-10.98 0,-10.71 -7.155,-14.04 -13.41,-17.415 -4.905,-2.655 -9.27,-4.905 -9.27,-11.835 0,-4.77 3.465,-7.515 10.17,-7.515 5.265,0 10.125,1.53 15.615,4.365 l 4.5,-12.24 c -5.67,-2.88 -9.675,-4.815 -20.16,-4.815 -12.465,0 -23.355,6.84 -23.355,20.25 0,10.44 5.31,17.865 14.895,22.185 l 1.305,-3.555 c -6.975,-3.195 -12.42,-8.82 -12.42,-18.63 0,-10.935 8.82,-16.47 19.575,-16.47 8.28,0 11.43,1.125 15.435,2.925 l -1.89,5.175 c -4.815,-2.025 -9.09,-2.97 -13.5,-2.97 -9.99,0 -13.95,5.49 -13.95,11.295 0,8.82 5.535,12.105 11.16,15.12 5.715,3.105 11.52,5.445 11.52,14.13 0,5.04 -4.05,7.2 -11.34,7.2 -6.12,0 -12.735,-2.52 -18.9,-5.76 l -4.59,12.195 c 6.75,3.645 13.995,6.255 23.49,6.255 14.265,0 24.57,-6.75 24.57,-19.89 0,-12.42 -6.39,-20.16 -18.135,-24.93 z"
         style="font-variant-ligatures:none;fill:#77bee8;stroke:#77bee8;stroke-width:1.25;stroke-miterlimit:2"
         id="path48543" /><path
         stroke-miterlimit="2"
         d="m 491.42,326.08 v 63.63 h -5.67 v -63.63 h -21.375 v 12.69 H 476.3 v -3.78 h -8.145 v -5.13 h 13.815 v 63.63 h 13.23 v -63.63 h 13.77 v 5.13 h -8.1 v 3.78 h 11.88 v -12.69 z"
         style="font-variant-ligatures:none;fill:#8cc3e0;stroke:#8cc3e0;stroke-width:1.25;stroke-miterlimit:2"
         id="path48545" /><path
         stroke-miterlimit="2"
         d="m 569.92,380.8 v -50.94 h 5.67 v 45.81 h 3.78 v -49.59 h -13.23 v 58.5 h 33.48 v 5.13 h -33.48 v 3.78 H 603.4 V 380.8 Z"
         style="font-variant-ligatures:none;fill:#a0c8d7;stroke:#a0c8d7;stroke-width:1.25;stroke-miterlimit:2"
         id="path48547" /><path
         stroke-miterlimit="2"
         d="m 743.25,356.59 c 2.88,-3.555 4.185,-8.235 4.185,-12.87 0,-9 -7.83,-17.64 -20.88,-17.64 H 702.39 v 29.43 h 23.76 c 7.56,0 12.015,-3.96 12.015,-10.98 0,-4.5 -3.24,-9.54 -12.33,-9.54 H 711.84 v 11.61 h 3.78 v -7.83 h 10.215 c 5.04,0 8.55,1.935 8.55,5.76 0,4.68 -2.61,7.2 -7.875,7.2 h -20.34 v -21.87 h 20.385 c 10.8,0 17.1,6.795 17.1,13.86 0,7.65 -3.69,11.34 -6.615,13.635 6.12,2.61 10.215,7.56 10.215,15.975 0,8.73 -6.48,16.38 -18.45,16.38 H 706.17 v -25.335 h 21.735 c 6.795,0 9.9,4.005 9.9,8.415 0,4.275 -2.52,8.01 -8.82,8.01 H 715.62 v -11.295 h -3.78 v 15.075 h 17.145 c 8.64,0 12.6,-5.67 12.6,-11.79 0,-6.93 -5.265,-12.195 -13.68,-12.195 H 702.39 v 32.895 h 26.415 c 13.725,0 22.23,-9 22.23,-20.16 0,-7.56 -2.835,-13.095 -7.785,-16.74 z"
         style="font-variant-ligatures:none;fill:#c8d1c5;stroke:#c8d1c5;stroke-width:1.25;stroke-miterlimit:2"
         id="path48551" /><path
         style="fill:#d6dbca;stroke-width:0.33704999"
         d="m 649.31,327.18 h -8.9952 v 6.7464 h 2.2488 v 13.155 l -13.493,20.241 -13.493,20.236 v 7.0848 h 67.464 v -7.0834 l -13.48,-20.24 -13.49,-20.23 v -13.153 h 2.2488 v -6.7464 z m 0,2.2488 h 6.7464 v 2.2488 h -2.2488 v 16.079 l 7.3834,11.075 7.3834,11.075 h -38.532 l 7.3838,-11.076 7.3834,-11.075 v -16.079 h -2.2488 v -2.2488 z m 0,42.728 h 20.764 l 0.7498,1.1244 0.74981,1.1244 h -44.524 l 0.7498,-1.1244 0.7498,-1.1244 z m 0,4.4976 h 23.762 l 0.7498,1.1244 0.7498,1.1244 h -50.524 l 0.7498,-1.1244 0.7498,-1.1244 z m 0,4.4976 h 26.76 l 0.7498,1.1244 0.7498,1.1244 h -56.523 l 0.74981,-1.1244 0.7498,-1.1244 z m 0,4.4976 h 29.759 l 0.7498,1.1244 0.74981,1.1244 h -62.516 l 0.7498,-1.1244 0.7498,-1.1244 z m 0,4.4976 h 31.483 v 2.2488 h -62.968 v -2.2488 z m 3.2982,-32.813 c -0.005,-1.8e-4 -0.42091,0.41097 -0.92352,0.91378 l -0.91414,0.91431 0.33619,1.2516 c 0.18497,0.68849 0.33921,1.2545 0.34258,1.2576 0.004,0.003 0.56072,0.15442 1.2382,0.33582 0.67744,0.1816 1.2425,0.33002 1.2556,0.33002 0.0131,0 0.43419,-0.41117 0.93552,-0.91358 l 0.91152,-0.91357 -0.33507,-1.2443 c -0.1844,-0.68458 -0.33958,-1.2488 -0.34501,-1.2543 -0.005,-0.005 -0.5684,-0.15985 -1.2511,-0.34332 -0.6827,-0.18346 -1.2456,-0.33376 -1.2507,-0.33413 z m -9.5351,3.1905 c -0.008,0 -0.42597,0.41154 -0.92875,0.91431 l -0.91431,0.91452 0.33582,1.2509 c 0.18459,0.68795 0.3388,1.2532 0.34275,1.2558 0.004,0.003 0.56725,0.1546 1.252,0.33752 l 1.2451,0.33263 0.91468,-0.91451 c 0.50319,-0.50298 0.91469,-0.92463 0.91469,-0.937 0,-0.0122 -0.14767,-0.57289 -0.32832,-1.2456 -0.18066,-0.67275 -0.33451,-1.2292 -0.34201,-1.2363 -0.007,-0.007 -0.568,-0.16116 -1.2453,-0.34257 -0.67747,-0.17763 -1.2383,-0.32627 -1.2464,-0.32627 z"
         id="icon" /></g></g></svg>